<svg version="1.1" xmlns="http://www.w3.org/2000/svg" xmlns:xlink="http://www.w3.org/1999/xlink" x="0px" y="0px"
	width="100%" viewBox="0 0 295 50" enable-background="new 0 0 295 50" xml:space="preserve">
	<path fill="#FFFFFF" opacity="1.000000" stroke="none" d="
M87.000000,51.000000 
	C71.312439,51.000000 55.624878,51.000000 39.763031,50.672447 
	C36.993038,48.641548 32.830536,47.872509 34.909710,44.590824 
	C26.261644,40.494106 17.853428,36.511005 10.278642,32.922714 
	C11.387826,28.016994 12.153156,24.632076 12.684043,22.284061 
	C8.265539,20.663977 4.632770,19.331989 1.000000,18.000000 
	C1.000000,13.975455 1.000000,9.950912 1.386176,5.460799 
	C3.848235,3.663488 5.924118,2.331744 8.000000,1.000000 
	C16.354231,1.000000 24.708464,1.000000 33.231556,1.358156 
	C33.899357,2.131220 34.366753,2.860941 34.901890,2.914556 
	C45.633385,3.989721 56.370163,5.755975 67.111092,5.791154 
	C78.643982,5.828927 90.164490,7.079411 101.804054,5.240293 
	C111.476830,3.711938 121.244904,6.617805 130.962067,7.604593 
	C145.806610,9.112074 160.917175,7.999913 177.089249,7.999913 
	C174.328110,9.132495 172.390335,9.927346 170.527405,10.691494 
	C179.155090,10.691494 187.746658,10.691494 196.338211,10.691494 
	C196.348541,10.302313 196.358871,9.913132 196.369202,9.523951 
	C191.059921,9.260278 185.750626,8.996605 181.460251,8.783533 
	C191.448257,8.783533 202.433105,8.783533 213.417953,8.783533 
	C213.439102,9.104981 213.460251,9.426431 213.481415,9.747879 
	C212.471130,9.934946 211.460861,10.122012 210.450577,10.309078 
	C238.323547,10.808342 266.048706,6.912366 293.947510,9.260888 
	C276.544189,12.012740 259.032410,13.249591 241.391769,13.010061 
	C241.394836,13.592061 241.397888,14.174060 241.400955,14.756060 
	C255.115341,14.756060 268.829712,14.756060 282.544098,14.756060 
	C282.561188,15.095645 282.578247,15.435230 282.595306,15.774816 
	C276.374969,16.560677 270.154602,17.346537 263.934265,18.132397 
	C263.953979,18.826599 263.973694,19.520802 263.993378,20.215006 
	C271.178009,20.598230 278.362610,20.981455 285.547211,21.364679 
	C285.546722,21.545221 285.546234,21.725763 285.545776,21.906305 
	C282.522583,21.906305 279.499390,21.906305 275.923065,21.906305 
	C277.253265,23.115698 278.052643,23.842457 279.337189,25.010338 
	C277.231110,25.637663 275.791016,26.066612 274.350922,26.495564 
	C274.371460,26.674425 274.391998,26.853285 274.412537,27.032146 
	C276.838196,27.032146 279.263855,27.032146 281.689545,27.032146 
	C281.724823,27.543165 281.760071,28.054184 281.795349,28.565201 
	C277.389679,28.780134 272.984039,28.995068 268.283051,29.224407 
	C268.778839,30.042664 269.246796,30.814930 270.280396,32.520741 
	C260.378357,33.579937 250.934586,34.590111 240.747253,35.679821 
	C243.504608,35.901134 245.569794,36.066895 247.634964,36.232651 
	C247.682907,36.630737 247.730835,37.028824 247.778778,37.426907 
	C235.009720,39.288830 222.274567,41.441399 209.462601,42.935181 
	C195.164673,44.602215 180.816025,45.958771 166.453674,46.909870 
	C154.732864,47.686043 142.959808,47.682987 131.209106,47.995468 
	C117.959785,48.347809 104.709457,48.662827 91.459877,49.005875 
	C90.142212,49.039989 88.807205,49.057823 87.525604,49.311932 
	C87.249680,49.366642 87.170052,50.411331 87.000000,51.000000 
M182.437561,38.625572 
	C190.328430,38.805267 198.343002,40.325890 205.904678,36.673450 
	C204.079834,36.000023 202.277908,35.845219 200.511017,36.028389 
	C194.680084,36.632866 188.861832,37.359535 182.437561,38.625572 
z" />
</svg>